<svg width="747" height="824" viewBox="0 0 747 824" fill="none" xmlns="http://www.w3.org/2000/svg">
<g filter="url(#filter0_d_4_2)">
<path fill-rule="evenodd" clip-rule="evenodd" d="M255.472 0.884772C249.088 3.48877 245.084 11.9288 246.947 18.8508C247.935 22.5198 253.701 28.9418 256.007 28.9418C256.615 28.9418 256.972 48.5488 256.972 81.9418V134.942L363.222 135.045C520.378 135.197 606.565 136.315 615.943 138.325C639.219 143.313 655.764 152.582 672.314 169.904C688.878 187.242 697.934 206.32 701.473 231.333C704.506 252.771 700.895 273.953 690.715 294.442C685.099 305.746 679.552 313.153 669.341 322.986C649.351 342.236 629.563 351.16 600.972 353.818C594.538 354.416 556.757 355.051 515.21 355.26C474.366 355.464 440.616 355.964 440.21 356.369C439.804 356.774 439.315 367.306 439.123 379.774L438.773 402.442L435.623 404.447C426.242 410.417 427.439 426.314 437.589 430.555C444.862 433.594 451.853 431.178 456.787 423.918C458.718 421.078 459.065 419.532 458.686 415.467C458.277 411.077 457.678 409.999 453.597 406.305L448.972 402.117V383.589V365.061L529.222 364.658C597.522 364.316 610.526 364.022 616.548 362.682C640.545 357.345 663.295 344.972 677.982 329.272C691.982 314.306 701.443 298.737 707.35 280.942C711.986 266.98 713.344 256.758 712.711 240.606C711.066 198.651 688.495 161.466 652.264 141.022C639.035 133.557 623.394 128.437 605.972 125.866C600.69 125.086 549.45 124.805 432.722 124.915L266.972 125.071V77.0068C266.972 46.7848 267.33 28.9418 267.937 28.9418C268.468 28.9418 270.487 27.5508 272.423 25.8508C279.451 19.6808 279.252 10.1378 271.96 3.54977C268.409 0.341772 267.384 -0.0512279 262.719 0.00477207C259.833 0.0397721 256.572 0.435772 255.472 0.884772ZM300.656 22.3578C298.557 23.1248 296.001 24.5108 294.977 25.4378C292.418 27.7528 289.972 33.1738 289.972 36.5268C289.972 41.0948 293.651 47.4538 297.49 49.5208L300.972 51.3968V78.6688V105.942H452.438C617.227 105.942 615.148 105.878 634.766 111.549C663.336 119.808 691.257 140.81 708.46 166.981C727.32 195.672 735.101 225.182 732.136 256.774C729.469 285.2 721.497 306.126 704.929 328.193C683.323 356.968 656.332 374.162 620.472 381.995C611.083 384.046 607.221 384.209 557.231 384.667L503.989 385.154L499.705 380.423C495.858 376.173 494.89 375.641 490.19 375.189C485.759 374.763 484.369 375.075 481.121 377.225C469.127 385.162 473.24 403.091 487.422 404.689C492.95 405.312 498.607 402.676 501.211 398.262L503.17 394.942L548.321 394.94C573.154 394.938 599.386 394.486 606.613 393.935C672.345 388.92 727.284 339.483 740.654 273.316C743.197 260.732 743.218 227.897 740.69 216.184C737.631 202.007 730.914 183.68 724.294 171.442C719.269 162.153 701.55 140.258 692.799 132.523C675.303 117.059 648.567 103.782 622.666 97.6938C613.492 95.5378 613.151 95.5328 462.222 95.2038L310.972 94.8748V73.1238V51.3728L314.049 49.5558C329.264 40.5678 317.304 16.2778 300.656 22.3578ZM13.973 116.065C5.76499 119.338 1.60799 129.47 5.43599 136.873C10.775 147.198 23.722 148.725 31.259 139.919L34.664 135.942H121.939H209.214L208.495 150.312L207.777 164.683L403.625 165.249C616.282 165.863 606.175 165.579 621.461 171.38C634.44 176.306 645.662 184.219 654.038 194.352C660.534 202.211 668.611 218.466 670.48 227.442C672.337 236.364 672.377 252.648 670.565 262.12C668.264 274.144 659.647 290.039 649.6 300.789C642.379 308.516 628.783 316.602 615.472 321.085L608.472 323.442L493.886 323.72L379.3 323.998L378.637 387.72C378.272 422.767 377.973 501.465 377.973 562.604C377.972 684.548 378.107 681.551 371.956 696.327C359.217 726.927 332.202 744.972 298.972 745.078C282.505 745.131 269.587 741.44 256.629 732.981C240.397 722.384 228.267 705.885 222.307 686.295C220.637 680.803 220.509 670.396 220.229 517.692L219.931 354.942H177.179H134.427L132.639 351.622C130.312 347.301 126.19 344.942 120.969 344.942C111.646 344.942 105.543 350.75 105.543 359.622C105.543 366.064 107.756 369.488 114.031 372.754C121.215 376.495 129.071 374.449 132.818 367.863L134.472 364.955L171.701 364.948L208.93 364.942L209.201 521.692L209.472 678.442L212.169 688.21C217.096 706.053 225.002 719.19 238.202 731.468C255.731 747.771 275.228 755.313 299.972 755.36C315.8 755.39 325.379 753.281 338.473 746.884C357.896 737.395 376.125 717.159 383.086 697.36C388.631 681.586 388.335 691.699 388.692 506.246L389.021 335.049L496.247 334.643C608.863 334.216 607.238 334.277 622.472 329.871C634.072 326.516 647.192 317.675 659.018 305.247C686.457 276.41 690.727 230.854 669.097 197.733C656.292 178.127 638.351 164.559 617.472 158.693L609.472 156.445L414.722 156.174L219.972 155.903V141.398V126.892L217.222 125.734C215.191 124.879 190.959 124.643 124.594 124.831L34.715 125.086L31.668 121.39C26.925 115.636 20.157 113.599 13.973 116.065ZM543.934 188.192C541.48 189.43 538.572 191.887 537.472 193.653L535.472 196.865L372.222 196.903L208.972 196.942V256.416V315.889L204.472 320.389C199.056 325.806 198.133 331.486 201.586 338.163C204.015 342.859 208.605 345.117 214.794 344.659C219.295 344.326 220.665 343.716 223.681 340.7C226.561 337.82 227.338 336.184 227.721 332.203C228.266 326.535 226.368 321.903 222.451 319.336L219.972 317.712V262.327V206.942L377.722 206.954L535.472 206.967L537.627 210.295C541.688 216.569 551.002 218.775 557.988 215.118C565.27 211.306 568.064 199.659 563.273 193.078C561.117 190.115 553.631 185.942 550.472 185.942C549.33 185.942 546.388 186.954 543.934 188.192ZM491.215 225.918C488.577 227.116 486.163 229.198 484.867 231.396L482.774 234.942H366.831H250.888L251.18 265.032L251.472 295.121L253.833 297.032C256.136 298.896 260.371 298.942 428.833 298.93C615.761 298.917 606.781 299.174 616.349 293.567C628.561 286.41 634.428 271.903 630.532 258.5C628.993 253.205 628.982 252.374 630.41 248.805C632.419 243.784 632.353 241.378 630.068 236.347C627.509 230.712 622.767 227.942 615.681 227.942C611.147 227.942 609.553 228.423 607.013 230.561C602.836 234.075 600.971 237.962 600.976 243.142C600.983 251.289 607.55 257.931 615.605 257.938C619.045 257.941 619.84 258.32 620.342 260.192C621.258 263.609 621.088 271.508 620.039 274.266C618.52 278.26 612.784 284.122 608.481 286.077C604.654 287.815 596.702 287.899 433.222 287.92L261.972 287.942V266.442V244.942L372.722 244.948L483.472 244.955L485.164 247.927C490.368 257.075 504.612 257.16 510.678 248.08C514.249 242.733 514.562 238.704 511.832 233.2C510.052 229.612 508.375 227.889 505.01 226.192C499.583 223.455 496.764 223.399 491.215 225.918ZM231.895 335.865C228.413 339.347 228.126 343.043 230.976 347.716C232.949 350.953 232.972 352.851 232.972 512.558C232.972 672.612 232.953 674.15 230.972 676.669C223.865 685.704 236.915 697.153 245.049 689.019C248.897 685.17 249.068 679.719 245.471 675.536L242.972 672.631V512.181V351.731L245.472 348.76C253.626 339.069 240.838 326.923 231.895 335.865ZM257.895 335.865C254.289 339.471 253.887 345.293 256.972 349.215C258.953 351.734 258.972 353.272 258.972 512.695C258.972 670.797 258.938 673.663 257.029 675.391C252.608 679.391 253.732 687.732 259.063 690.489C263.262 692.66 266.585 692.259 270.049 689.165C273.984 685.649 274.43 680.406 271.17 675.996L268.972 673.023V609.482V545.942H285.446H301.921L303.344 548.694C304.127 550.208 305.695 552.286 306.829 553.313C309.703 555.913 316.862 556.568 320.704 554.581C324.699 552.515 328.39 545.124 327.485 541.003C324.953 529.471 308.594 526.037 303.463 535.959L301.921 538.942H285.446H268.972V445.336V351.731L271.472 348.76C279.183 339.596 266.351 327.409 257.895 335.865ZM329.992 335.226C324.717 337.895 323.486 345.022 327.479 349.768L329.985 352.747L329.729 423.594L329.472 494.442L313.26 494.717L297.049 494.991L295.613 492.214C293.341 487.82 290.394 485.744 285.678 485.212C280.258 484.601 275.651 486.78 272.932 491.241C266.237 502.219 278.53 515.042 290.365 509.426C292.122 508.592 294.36 506.556 295.337 504.901L297.114 501.893L313.293 502.168L329.472 502.442L329.728 588.872L329.983 675.301L327.896 677.523C326.747 678.745 325.564 681.568 325.265 683.795C324.789 687.344 325.099 688.223 327.77 690.894C330.136 693.26 331.7 693.942 334.759 693.942C342.647 693.942 346.901 684.935 341.972 678.669C339.991 676.15 339.972 674.612 339.972 513.992C339.972 353.241 339.989 351.84 341.972 349.712C345.087 346.368 344.664 340.481 341.049 336.865C337.857 333.673 334.148 333.123 329.992 335.226ZM353.895 336.865C350.356 340.404 349.982 345.413 352.972 349.215C354.953 351.734 354.972 353.272 354.972 514.35C354.972 619.221 354.626 676.942 353.998 676.942C352.598 676.942 349.972 682.404 349.972 685.316C349.972 688.615 354.278 693.576 357.711 694.232C361.181 694.896 366.472 692.744 367.892 690.092C369.6 686.9 369.162 681.453 366.972 678.669C364.991 676.15 364.972 674.612 364.972 514.429V352.731L367.472 349.76C371.003 345.563 370.842 340.658 367.049 336.865C364.885 334.701 363.177 333.942 360.472 333.942C357.767 333.942 356.059 334.701 353.895 336.865ZM178.472 447.354C167.878 452.062 166.326 468.454 176.002 473.457L178.972 474.993V552.968V630.942H135.039C92.314 630.942 91.09 630.888 90.486 628.986C89.548 626.031 84.352 622.104 80.399 621.362C75.811 620.502 68.809 623.158 65.594 626.979C57.81 636.23 65.01 650.942 77.32 650.942C81.907 650.942 88.259 647.643 90.025 644.342L91.28 641.998L138.715 641.72L186.15 641.442L188.061 639.081C189.907 636.801 189.972 633.981 189.972 556.178V475.635L193.86 472.038C198.432 467.809 200.254 462.549 198.876 457.558C196.322 448.306 186.914 443.601 178.472 447.354ZM501.356 448.843C499.092 449.878 496.001 452.348 494.487 454.333L491.735 457.942H449.853H407.972V566.87C407.972 638.667 407.607 678.464 406.902 683.62C404.644 700.138 396.092 719.444 384.161 734.958C374.018 748.147 352.103 763.801 336.388 769.082L327.908 771.931L322.828 768.437C316.586 764.143 311.061 763.744 305.87 767.212C294.983 774.485 297.713 791.329 310.29 794.486C316.737 796.104 325.238 791.544 327.941 785.016C328.966 782.542 330.274 781.741 336.256 779.924C346.352 776.858 361.36 769.066 370.574 762.108C394.057 744.374 410.09 719.258 416.66 689.913C418.154 683.242 418.372 670.96 418.691 575.192L419.048 467.942H455.911H492.774L494.868 471.491C497.012 475.124 502.007 477.96 506.19 477.92C510.273 477.881 516.856 474.181 518.948 470.75C522.95 464.185 520.776 453.805 514.616 450.066C509.676 447.068 505.983 446.727 501.356 448.843ZM440.87 494.212C431.881 500.217 431.914 513.558 440.931 518.733C444.686 520.888 444.774 521.61 445.945 559.942C447.465 609.71 444.812 654.226 438.452 685.634C431.962 717.689 419.412 741.53 397.486 763.456C349.747 811.195 278.796 820.222 224.814 785.425C195.049 766.239 173.771 736.725 164.073 701.176L162.091 693.91L164.582 692.278C172.914 686.819 171.386 673.236 161.867 668.138C151.643 662.663 139.877 669.558 140.019 680.942C140.086 686.319 142.014 689.643 147.438 693.732C151.347 696.678 152.589 698.324 153.27 701.459C158.831 727.055 173.007 752.153 193.393 772.494C222.646 801.682 257.288 815.942 298.945 815.942C323.236 815.942 345.838 810.28 368.807 798.442C384.642 790.281 392.776 784.309 405.478 771.518C431.503 745.31 445.674 717.518 452.936 678.442C459.77 641.67 460.779 585.863 455.541 534.442L454.217 521.442L457.636 518.561C461.994 514.89 463.973 511.04 463.968 506.242C463.957 495.054 450.276 487.928 440.87 494.212Z" fill="url(#paint0_linear_4_2)" shape-rendering="crispEdges"/>
</g>
<defs>
<filter id="filter0_d_4_2" x="0" y="0" width="746.574" height="823.942" filterUnits="userSpaceOnUse" color-interpolation-filters="sRGB">
<feFlood flood-opacity="0" result="BackgroundImageFix"/>
<feColorMatrix in="SourceAlpha" type="matrix" values="0 0 0 0 0 0 0 0 0 0 0 0 0 0 0 0 0 0 127 0" result="hardAlpha"/>
<feOffset dy="4"/>
<feGaussianBlur stdDeviation="2"/>
<feComposite in2="hardAlpha" operator="out"/>
<feColorMatrix type="matrix" values="0 0 0 0 0 0 0 0 0 0 0 0 0 0 0 0 0 0 0.25 0"/>
<feBlend mode="normal" in2="BackgroundImageFix" result="effect1_dropShadow_4_2"/>
<feBlend mode="normal" in="SourceGraphic" in2="effect1_dropShadow_4_2" result="shape"/>
</filter>
<linearGradient id="paint0_linear_4_2" x1="373.287" y1="0" x2="373.287" y2="815.942" gradientUnits="userSpaceOnUse">
<stop stop-color="#F2F2F2"/>
<stop offset="1" stop-color="#1905FF" stop-opacity="0.25"/>
</linearGradient>
</defs>
</svg>
